<?xml version="1.0" standalone="no"?>
<!DOCTYPE svg PUBLIC "-//W3C//DTD SVG 20010904//EN"
 "http://www.w3.org/TR/2001/REC-SVG-20010904/DTD/svg10.dtd">
<svg version="1.0" xmlns="http://www.w3.org/2000/svg"
 width="256.000000pt" height="256.000000pt" viewBox="0 0 256.000000 256.000000"
 preserveAspectRatio="xMidYMid meet">

<g transform="translate(0.000000,256.000000) scale(0.100000,-0.100000)"
fill="#000000" stroke="none">
<path d="M1170 841 c16 -31 32 -36 18 -7 -6 14 -15 26 -20 26 -5 0 -4 -9 2
-19z"/>
<path d="M1730 806 c0 -2 12 -12 28 -21 l27 -18 -19 21 c-17 20 -36 29 -36 18z"/>
<path d="M975 790 c3 -5 11 -10 16 -10 6 0 7 5 4 10 -3 6 -11 10 -16 10 -6 0
-7 -4 -4 -10z"/>
<path d="M1232 627 c-75 -93 -203 -262 -221 -290 -20 -34 152 146 235 246 41
48 74 92 74 96 0 5 -7 11 -15 15 -9 3 -34 -19 -73 -67z"/>
<path d="M1935 690 c3 -5 8 -10 11 -10 2 0 4 5 4 10 0 6 -5 10 -11 10 -5 0 -7
-4 -4 -10z"/>
<path d="M239 623 c-13 -16 -12 -17 4 -4 9 7 17 15 17 17 0 8 -8 3 -21 -13z"/>
<path d="M2010 623 c0 -7 -7 -10 -17 -6 -12 4 -8 -5 12 -26 33 -36 43 -29 20
15 -8 16 -15 24 -15 17z"/>
</g>
</svg>
